<svg width="860" height="700" viewBox="0 0 860 700" xmlns="http://www.w3.org/2000/svg" role="img">
<title>AI Helpdesk and Ticketing System — System Architecture</title>
<defs>
<marker id="a" viewBox="0 0 10 10" refX="8" refY="5" markerWidth="5" markerHeight="5" orient="auto-start-reverse">
<path d="M2 1L8 5L2 9" fill="none" stroke="#3a3a5a" stroke-width="1.5" stroke-linecap="round" stroke-linejoin="round"/>
</marker>
<pattern id="dp" x="0" y="0" width="20" height="20" patternUnits="userSpaceOnUse">
<circle cx="1" cy="1" r=".8" fill="#fff" opacity=".02"/>
</pattern>
</defs>
<style>
text{font-family:'Courier New',Courier,monospace}
.wh{fill:#e8e8e8}.lt{fill:#cccccc}.md{fill:#777}.dm{fill:#3a3a55}
.tgn{fill:#00d4a1}.tpu{fill:#6c63ff}.tye{fill:#f0c040}.tbl{fill:#4a9eff}.trd{fill:#ff6b6b}
.box{fill:#16161f;stroke:#252535;stroke-width:.5}
.api{fill:#111118;stroke:#00d4a1;stroke-width:1}
.boxg{fill:#0d1f18;stroke:#00d4a1;stroke-width:.5}
.boxp{fill:#160d25;stroke:#6c63ff;stroke-width:.5}
.boxy{fill:#1a1500;stroke:#f0c040;stroke-width:.5}
.boxb{fill:#0d1520;stroke:#4a9eff;stroke-width:.5}
.boxr{fill:#1a0d0d;stroke:#ff6b6b;stroke-width:.5}
.inf{fill:#0a0a14;stroke:#1e1e2e;stroke-width:.5}
.arr{stroke:#2d2d50;stroke-width:1.5;fill:none;marker-end:url(#a)}
.arrd{stroke:#2d2d50;stroke-width:1.5;fill:none;stroke-dasharray:4,3;marker-end:url(#a)}
.div{stroke:#252535;stroke-width:.5}
</style>
<rect width="860" height="700" fill="#0c0c10"/>
<rect width="860" height="700" fill="url(#dp)"/>
<rect width="860" height="3" fill="#00d4a1"/>
<rect width="4" height="700" fill="#00d4a1"/>
<rect y="697" width="860" height="3" fill="#1a1a2e"/>

<text x="430" y="21" text-anchor="middle" font-size="14" font-weight="700" class="lt">AI Helpdesk &amp; Ticketing System</text>
<text x="430" y="37" text-anchor="middle" font-size="11" class="dm">// system architecture — kaggle ai agents intensive capstone 2026</text>

<text x="20" y="55" font-size="11" class="dm">01 · CLIENTS</text>
<rect x="20" y="62" width="252" height="55" rx="6" class="box"/>
<text x="34" y="77" font-size="11" class="md">customer · email</text>
<text x="34" y="93" font-size="13" font-weight="600" class="lt">Email Customer</text>
<text x="34" y="109" font-size="11" class="md">sends email to support</text>
<rect x="302" y="62" width="252" height="55" rx="6" class="box"/>
<text x="316" y="77" font-size="11" class="md">customer · web</text>
<text x="316" y="93" font-size="13" font-weight="600" class="lt">Web Customer</text>
<text x="316" y="109" font-size="11" class="md">submits ticket via UI</text>
<rect x="584" y="62" width="256" height="55" rx="6" class="boxp"/>
<text x="598" y="77" font-size="11" class="tpu">agent · admin</text>
<text x="598" y="93" font-size="13" font-weight="600" class="lt">Agent / Admin</text>
<text x="598" y="109" font-size="11" class="md">manages tickets + users</text>

<line x1="146" y1="117" x2="146" y2="137" class="arr"/>
<line x1="428" y1="117" x2="428" y2="137" class="arr"/>
<line x1="712" y1="117" x2="712" y2="137" class="arr"/>

<text x="20" y="131" font-size="11" class="dm">02 · ENTRY POINTS</text>
<rect x="20" y="138" width="218" height="65" rx="6" class="boxg"/>
<rect x="20" y="138" width="4" height="65" rx="2" fill="#00d4a1"/>
<text x="34" y="154" font-size="11" class="tgn">inbound · email</text>
<text x="34" y="170" font-size="12" font-weight="600" class="lt">Resend Webhook</text>
<text x="34" y="186" font-size="11" class="md">email → ticket creation</text>
<text x="34" y="199" font-size="11" class="md">POST /api/webhooks/email</text>
<rect x="258" y="138" width="582" height="65" rx="6" class="boxb"/>
<rect x="258" y="138" width="4" height="65" rx="2" fill="#4a9eff"/>
<text x="272" y="154" font-size="11" class="tbl">frontend · spa</text>
<text x="272" y="170" font-size="12" font-weight="600" class="lt">React 18 + Vite · TanStack Query v5</text>
<text x="272" y="186" font-size="11" class="md">Tailwind CSS v4 · shadcn/ui · Better Auth Client</text>
<text x="272" y="199" font-size="11" class="md">light / dark mode · search · filter · dashboard</text>

<line x1="129" y1="203" x2="129" y2="222" class="arr"/>
<line x1="549" y1="203" x2="549" y2="222" class="arr"/>

<text x="20" y="218" font-size="11" class="dm">03 · API LAYER</text>
<rect x="20" y="225" width="820" height="100" rx="6" class="api"/>
<rect x="20" y="225" width="4" height="100" rx="2" fill="#00d4a1"/>
<text x="430" y="246" text-anchor="middle" font-size="14" font-weight="700" class="tgn">Express 4 + TypeScript</text>
<text x="430" y="262" text-anchor="middle" font-size="11" class="md">Port 4000 · Bun Runtime</text>
<line x1="30" y1="272" x2="835" y2="272" class="div"/>
<text x="430" y="288" text-anchor="middle" font-size="11" class="md">Better Auth  ·  Helmet CSP  ·  Rate Limiter  ·  Zod Validation  ·  CORS</text>
<line x1="30" y1="298" x2="835" y2="298" class="div"/>
<text x="430" y="313" text-anchor="middle" font-size="11" class="md">/api/tickets  ·  /api/users  ·  /api/replies  ·  /api/dashboard  ·  /api/webhooks  ·  /debug-sentry</text>

<line x1="215" y1="325" x2="215" y2="344" class="arr"/>
<text x="220" y="338" font-size="11" class="md">read/write</text>
<line x1="635" y1="325" x2="635" y2="344" class="arrd"/>
<text x="640" y="338" font-size="11" class="md">enqueue</text>

<text x="20" y="340" font-size="11" class="dm">04 · DATA LAYER</text>
<rect x="20" y="347" width="380" height="80" rx="6" class="box"/>
<rect x="20" y="347" width="4" height="80" rx="2" fill="#555"/>
<text x="34" y="363" font-size="11" class="md">database · orm</text>
<text x="34" y="379" font-size="13" font-weight="600" class="lt">PostgreSQL · Prisma ORM v7</text>
<text x="34" y="395" font-size="11" class="md">tickets · users · replies · sessions</text>
<text x="34" y="411" font-size="11" class="md">isAiResolved · senderType · deletedAt</text>
<rect x="430" y="347" width="410" height="80" rx="6" class="boxg"/>
<rect x="430" y="347" width="4" height="80" rx="2" fill="#00d4a1"/>
<text x="444" y="363" font-size="11" class="tgn">queue · async · fault-tolerant</text>
<text x="444" y="379" font-size="13" font-weight="600" class="lt">PgBoss Job Queue</text>
<text x="444" y="395" font-size="11" class="md">ticket-classification  ·  ticket-auto-resolve</text>
<text x="444" y="411" font-size="11" class="md">send-email  ·  auto-retry on failure</text>

<path d="M 470,427 L 470,440 L 151,440 L 151,449" class="arrd"/>
<path d="M 580,427 L 580,436 L 433,436 L 433,449" class="arrd"/>
<path d="M 700,427 L 700,432 L 712,432 L 712,449" class="arrd"/>

<text x="20" y="445" font-size="11" class="dm">05 · AI AGENT PIPELINE</text>
<rect x="20" y="449" width="262" height="90" rx="6" class="boxg"/>
<rect x="20" y="449" width="4" height="90" rx="2" fill="#00d4a1"/>
<text x="34" y="466" font-size="11" class="tgn">01 // classify</text>
<text x="34" y="482" font-size="12" font-weight="600" class="tgn">Classification Worker</text>
<text x="34" y="497" font-size="11" class="md">Groq llama-3.1-8b-instant</text>
<text x="34" y="511" font-size="11" class="md">→ general | technical | refund</text>
<text x="34" y="527" font-size="11" class="md">single-token output contract</text>
<rect x="302" y="449" width="262" height="90" rx="6" class="boxg"/>
<rect x="302" y="449" width="4" height="90" rx="2" fill="#00d4a1"/>
<text x="316" y="466" font-size="11" class="tgn">02 // resolve</text>
<text x="316" y="482" font-size="12" font-weight="600" class="tgn">Auto-Resolve Worker</text>
<text x="316" y="497" font-size="11" class="md">reads knowledge-base.md</text>
<text x="316" y="511" font-size="11" class="md">→ reply or CANNOT_RESOLVE</text>
<text x="316" y="527" font-size="11" class="md">row-level lock (idempotent)</text>
<rect x="584" y="449" width="256" height="90" rx="6" class="boxg"/>
<rect x="584" y="449" width="4" height="90" rx="2" fill="#00d4a1"/>
<text x="598" y="466" font-size="11" class="tgn">03 // send + polish</text>
<text x="598" y="482" font-size="12" font-weight="600" class="tgn">Email + Polish Worker</text>
<text x="598" y="497" font-size="11" class="md">outbound email via Resend</text>
<text x="598" y="511" font-size="11" class="md">Polish Reply: on-demand</text>
<text x="598" y="527" font-size="11" class="md">rewrites drafts via Groq</text>

<path d="M 151,539 L 151,550 L 142,550 L 142,560" class="arr"/>
<path d="M 433,539 L 433,554 L 142,554 L 142,560" class="arr"/>
<path d="M 712,539 L 712,550 L 407,550 L 407,560" class="arr"/>

<text x="20" y="556" font-size="11" class="dm">06 · EXTERNAL SERVICES</text>
<rect x="20" y="562" width="245" height="60" rx="6" class="boxy"/>
<rect x="20" y="562" width="4" height="60" rx="2" fill="#f0c040"/>
<text x="34" y="578" font-size="11" class="tye">ai · inference</text>
<text x="34" y="594" font-size="13" font-weight="600" class="lt">Groq API</text>
<text x="34" y="610" font-size="11" class="md">llama-3.1-8b-instant · free tier</text>
<rect x="285" y="562" width="245" height="60" rx="6" class="boxg"/>
<rect x="285" y="562" width="4" height="60" rx="2" fill="#00d4a1"/>
<text x="299" y="578" font-size="11" class="tgn">email · outbound</text>
<text x="299" y="594" font-size="13" font-weight="600" class="lt">Resend API</text>
<text x="299" y="610" font-size="11" class="md">transactional + reply emails</text>
<rect x="550" y="562" width="180" height="60" rx="6" class="boxr"/>
<rect x="550" y="562" width="4" height="60" rx="2" fill="#ff6b6b"/>
<text x="564" y="578" font-size="11" class="trd">monitoring · tracing</text>
<text x="564" y="594" font-size="13" font-weight="600" class="lt">Sentry</text>
<text x="564" y="610" font-size="11" class="md">errors · stack traces</text>
<rect x="750" y="562" width="90" height="60" rx="6" class="boxp"/>
<rect x="750" y="562" width="4" height="60" rx="2" fill="#6c63ff"/>
<text x="764" y="578" font-size="11" class="tpu">webhooks</text>
<text x="764" y="594" font-size="12" font-weight="600" class="lt">Svix</text>
<text x="764" y="610" font-size="11" class="md">signature</text>

<text x="20" y="638" font-size="11" class="dm">07 · INFRASTRUCTURE &amp; AI WORKFLOW</text>
<rect x="20" y="645" width="820" height="42" rx="6" class="inf"/>
<rect x="20" y="645" width="4" height="42" rx="2" fill="#00d4a1"/>
<text x="430" y="661" text-anchor="middle" font-size="12" class="md">Railway  ·  Docker  ·  Bun v1.2  ·  Antigravity CLI  ·  Custom Agent Skills  ·  MCP Context7</text>
<text x="430" y="677" text-anchor="middle" font-size="11" class="dm">AGENTS.md  ·  project-scope.md  ·  implementation-plan.md  ·  tech-stack.md  ·  .agents/skills/</text>

</svg>
